# xmcd
#
# Track frame offsets:
#	182
#	13237
#	26150
#	38212
#	54225
#	66962
#	86537
#	101975
#	111462
#	120775
#	130662
#	158725
#	169112
#	181300
#
# Disc length: 2749 seconds
#
# Revision: 4
# Processed by: cddbd v1.5.2PL0 Copyright (c) Steve Scherf et al.
# Submitted via: SynApp - FreeCDDB Version: 2.5
#
DISCID=b60abb0e
DTITLE=Blues 1 - Blues CD 1(4)
DYEAR=0
DGENRE=Blues
TTITLE0=Jimmy Reed - Shame Shame Shame
TTITLE1=Big Maybell - Don't let the sun catch you crying
TTITLE2=Ray Charles - Honey Honey
TTITLE3=Bukka White - Shake 'em down
TTITLE4=Big Joe Turner - Everyday I have the blues
TTITLE5=Ruth Brown - Ain't no piece of cake
TTITLE6=Brownie Mcgee and Sonny Terry - Down by the riverside
TTITLE7=James Cotton - Diggin' potatoes
TTITLE8=Lightnin' Hopkins - Coffe House Blues
TTITLE9=John Lee Hooker - Dimples
TTITLE10=Bobby Powell - Sweet sixteen
TTITLE11=Jimmy Reed - Going to New York
TTITLE12=Memphis Slim - Blues for my baby
TTITLE13=Howling Wolf - Red Rooster
EXTD=
EXTT0=
EXTT1=
EXTT2=
EXTT3=
EXTT4=
EXTT5=
EXTT6=
EXTT7=
EXTT8=
EXTT9=
EXTT10=
EXTT11=
EXTT12=
EXTT13=
PLAYORDER=
